<svg xmlns="http://www.w3.org/2000/svg" xmlns:xlink="http://www.w3.org/1999/xlink" contentStyleType="text/css" data-diagram-type="DESCRIPTION" height="505px" preserveAspectRatio="none" style="width:4876px;height:505px;background:#FFFFFF;" version="1.1" viewBox="0 0 4876 505" width="4876px" zoomAndPan="magnify"><?plantuml 1.2026.3beta6?><defs/><g><g class="title" data-source-line="1"><text fill="#000000" font-family="sans-serif" font-size="14" font-weight="700" lengthAdjust="spacing" textLength="305.4775" x="2282.0183" y="22.9951">&#1044;&#1080;&#1072;&#1075;&#1088;&#1072;&#1084;&#1084;&#1072; &#1074;&#1072;&#1088;&#1080;&#1072;&#1085;&#1090;&#1086;&#1074; &#1080;&#1089;&#1087;&#1086;&#1083;&#1100;&#1079;&#1086;&#1074;&#1072;&#1085;&#1080;&#1103;</text><text fill="#000000" font-family="sans-serif" font-size="14" font-weight="700" lengthAdjust="spacing" textLength="296.9326" x="2286.2908" y="39.292">Windows-&#1087;&#1088;&#1080;&#1083;&#1086;&#1078;&#1077;&#1085;&#1080;&#1077; &#171;&#1054;&#1088;&#1075;&#1072;&#1085;&#1072;&#1081;&#1079;&#1077;&#1088;&#187;</text></g><!--cluster ?????????? ??????????--><g class="cluster" data-qualified-name=".......... .........." data-source-line="9" id="ent0005"><rect fill="none" height="308.85" rx="2.5" ry="2.5" style="stroke:#181818;stroke-width:1;" width="4647" x="7" y="182.3937"/><text fill="#000000" font-family="sans-serif" font-size="14" font-weight="700" lengthAdjust="spacing" textLength="203.9639" x="2228.5181" y="197.3889">&#1055;&#1088;&#1080;&#1083;&#1086;&#1078;&#1077;&#1085;&#1080;&#1077; &#1054;&#1088;&#1075;&#1072;&#1085;&#1072;&#1081;&#1079;&#1077;&#1088;</text></g><!--entity UC1--><g class="entity" data-qualified-name=".......... ...........UC1" data-source-line="11" id="ent0006"><ellipse cx="635.0042" cy="245.3946" fill="#F1F1F1" rx="81.6042" ry="18.7208" style="stroke:#181818;stroke-width:0.5;"/><text fill="#000000" font-family="sans-serif" font-size="14" lengthAdjust="spacing" textLength="134.4424" x="567.783" y="250.043">&#1044;&#1086;&#1073;&#1072;&#1074;&#1080;&#1090;&#1100; &#1082;&#1086;&#1085;&#1090;&#1072;&#1082;&#1090;</text></g><!--entity UC2--><g class="entity" data-qualified-name=".......... ...........UC2" data-source-line="12" id="ent0007"><ellipse cx="851.0003" cy="245.3898" fill="#F1F1F1" rx="99.8303" ry="22.3661" style="stroke:#181818;stroke-width:0.5;"/><text fill="#000000" font-family="sans-serif" font-size="14" lengthAdjust="spacing" textLength="175.6836" x="763.1585" y="250.0382">&#1056;&#1077;&#1076;&#1072;&#1082;&#1090;&#1080;&#1088;&#1086;&#1074;&#1072;&#1090;&#1100; &#1082;&#1086;&#1085;&#1090;&#1072;&#1082;&#1090;</text></g><!--entity UC3--><g class="entity" data-qualified-name=".......... ...........UC3" data-source-line="13" id="ent0008"><ellipse cx="1063.9964" cy="245.393" fill="#F1F1F1" rx="77.6964" ry="17.9393" style="stroke:#181818;stroke-width:0.5;"/><text fill="#000000" font-family="sans-serif" font-size="14" lengthAdjust="spacing" textLength="125.2139" x="1001.3895" y="250.0415">&#1059;&#1076;&#1072;&#1083;&#1080;&#1090;&#1100; &#1082;&#1086;&#1085;&#1090;&#1072;&#1082;&#1090;</text></g><!--entity UC4--><g class="entity" data-qualified-name=".......... ...........UC4" data-source-line="14" id="ent0009"><ellipse cx="1303.0004" cy="245.3958" fill="#F1F1F1" rx="126.3104" ry="27.6621" style="stroke:#181818;stroke-width:0.5;"/><text fill="#000000" font-family="sans-serif" font-size="14" lengthAdjust="spacing" textLength="232.7705" x="1186.6151" y="250.0443">&#1055;&#1088;&#1086;&#1089;&#1084;&#1086;&#1090;&#1088;&#1077;&#1090;&#1100; &#1089;&#1087;&#1080;&#1089;&#1086;&#1082; &#1082;&#1086;&#1085;&#1090;&#1072;&#1082;&#1090;&#1086;&#1074;</text></g><!--entity UC5--><g class="entity" data-qualified-name=".......... ...........UC5" data-source-line="15" id="ent0010"><ellipse cx="1542.002" cy="245.3962" fill="#F1F1F1" rx="77.662" ry="17.9324" style="stroke:#181818;stroke-width:0.5;"/><text fill="#000000" font-family="sans-serif" font-size="14" lengthAdjust="spacing" textLength="125.1318" x="1479.4361" y="250.0446">&#1055;&#1086;&#1080;&#1089;&#1082; &#1082;&#1086;&#1085;&#1090;&#1072;&#1082;&#1090;&#1086;&#1074;</text></g><!--entity UC6--><g class="entity" data-qualified-name=".......... ...........UC6" data-source-line="16" id="ent0011"><ellipse cx="1755.9988" cy="245.3955" fill="#F1F1F1" rx="101.2588" ry="22.6518" style="stroke:#181818;stroke-width:0.5;"/><text fill="#000000" font-family="sans-serif" font-size="14" lengthAdjust="spacing" textLength="178.8281" x="1666.5848" y="250.044">&#1043;&#1088;&#1091;&#1087;&#1087;&#1080;&#1088;&#1086;&#1074;&#1072;&#1090;&#1100; &#1082;&#1086;&#1085;&#1090;&#1072;&#1082;&#1090;&#1099;</text></g><!--entity UC7--><g class="entity" data-qualified-name=".......... ...........UC7" data-source-line="17" id="ent0012"><ellipse cx="3994.9995" cy="245.3917" fill="#F1F1F1" rx="106.4895" ry="23.6979" style="stroke:#181818;stroke-width:0.5;"/><text fill="#000000" font-family="sans-serif" font-size="14" lengthAdjust="spacing" textLength="190.2646" x="3899.8672" y="250.0401">&#1048;&#1084;&#1087;&#1086;&#1088;&#1090; &#1082;&#1086;&#1085;&#1090;&#1072;&#1082;&#1090;&#1086;&#1074; &#1080;&#1079; CSV</text></g><!--entity UC_Validate--><g class="entity" data-qualified-name=".......... ...........UC_Validate" data-source-line="18" id="ent0013"><ellipse cx="715.9983" cy="446.9694" fill="#F1F1F1" rx="74.8783" ry="17.3757" style="stroke:#181818;stroke-width:0.5;"/><text fill="#000000" font-family="sans-serif" font-size="14" lengthAdjust="spacing" textLength="118.4326" x="656.782" y="451.6179">&#1055;&#1088;&#1086;&#1074;&#1077;&#1088;&#1080;&#1090;&#1100; &#1074;&#1074;&#1086;&#1076;</text></g><!--entity UC8--><g class="entity" data-qualified-name=".......... ...........UC8" data-source-line="21" id="ent0014"><ellipse cx="1974.9985" cy="245.3915" fill="#F1F1F1" rx="82.5885" ry="18.9177" style="stroke:#181818;stroke-width:0.5;"/><text fill="#000000" font-family="sans-serif" font-size="14" lengthAdjust="spacing" textLength="136.7393" x="1906.6289" y="250.0399">&#1044;&#1086;&#1073;&#1072;&#1074;&#1080;&#1090;&#1100; &#1089;&#1086;&#1073;&#1099;&#1090;&#1080;&#1077;</text></g><!--entity UC9--><g class="entity" data-qualified-name=".......... ...........UC9" data-source-line="22" id="ent0015"><ellipse cx="2193.0033" cy="245.3984" fill="#F1F1F1" rx="100.8733" ry="22.5747" style="stroke:#181818;stroke-width:0.5;"/><text fill="#000000" font-family="sans-serif" font-size="14" lengthAdjust="spacing" textLength="177.9805" x="2104.0131" y="250.0469">&#1056;&#1077;&#1076;&#1072;&#1082;&#1090;&#1080;&#1088;&#1086;&#1074;&#1072;&#1090;&#1100; &#1089;&#1086;&#1073;&#1099;&#1090;&#1080;&#1077;</text></g><!--entity UC10--><g class="entity" data-qualified-name=".......... ...........UC10" data-source-line="23" id="ent0016"><ellipse cx="2408.0016" cy="245.3961" fill="#F1F1F1" rx="78.6616" ry="18.1323" style="stroke:#181818;stroke-width:0.5;"/><text fill="#000000" font-family="sans-serif" font-size="14" lengthAdjust="spacing" textLength="127.5107" x="2344.2462" y="250.0445">&#1059;&#1076;&#1072;&#1083;&#1080;&#1090;&#1100; &#1089;&#1086;&#1073;&#1099;&#1090;&#1080;&#1077;</text></g><!--entity UC11--><g class="entity" data-qualified-name=".......... ...........UC11" data-source-line="24" id="ent0017"><ellipse cx="2624.0028" cy="245.3943" fill="#F1F1F1" rx="102.0028" ry="22.8006" style="stroke:#181818;stroke-width:0.5;"/><text fill="#000000" font-family="sans-serif" font-size="14" lengthAdjust="spacing" textLength="180.4619" x="2533.7718" y="250.0427">&#1055;&#1088;&#1086;&#1089;&#1084;&#1086;&#1090;&#1088;&#1077;&#1090;&#1100; &#1082;&#1072;&#1083;&#1077;&#1085;&#1076;&#1072;&#1088;&#1100;</text></g><!--entity UC12--><g class="entity" data-qualified-name=".......... ...........UC12" data-source-line="25" id="ent0018"><ellipse cx="2879.0031" cy="245.3924" fill="#F1F1F1" rx="117.8931" ry="25.9786" style="stroke:#181818;stroke-width:0.5;"/><text fill="#000000" font-family="sans-serif" font-size="14" lengthAdjust="spacing" textLength="214.8535" x="2771.5764" y="250.0408">&#1055;&#1077;&#1088;&#1077;&#1082;&#1083;&#1102;&#1095;&#1080;&#1090;&#1100; &#1074;&#1080;&#1076; &#1082;&#1072;&#1083;&#1077;&#1085;&#1076;&#1072;&#1088;&#1103;</text></g><!--entity UC13--><g class="entity" data-qualified-name=".......... ...........UC13" data-source-line="26" id="ent0019"><ellipse cx="3134.9985" cy="245.3915" fill="#F1F1F1" rx="102.7385" ry="22.9477" style="stroke:#181818;stroke-width:0.5;"/><text fill="#000000" font-family="sans-serif" font-size="14" lengthAdjust="spacing" textLength="182.0752" x="3043.9609" y="250.0399">&#1053;&#1072;&#1089;&#1090;&#1088;&#1086;&#1080;&#1090;&#1100; &#1085;&#1072;&#1087;&#1086;&#1084;&#1080;&#1085;&#1072;&#1085;&#1080;&#1077;</text></g><!--entity UC14--><g class="entity" data-qualified-name=".......... ...........UC14" data-source-line="27" id="ent0020"><ellipse cx="3875.0032" cy="446.9784" fill="#F1F1F1" rx="129.3732" ry="28.2746" style="stroke:#181818;stroke-width:0.5;"/><text fill="#000000" font-family="sans-serif" font-size="14" lengthAdjust="spacing" textLength="239.251" x="3755.3777" y="451.6268">&#1042;&#1099;&#1076;&#1072;&#1090;&#1100; &#1085;&#1072;&#1087;&#1086;&#1084;&#1080;&#1085;&#1072;&#1085;&#1080;&#1077; &#1086; &#1089;&#1086;&#1073;&#1099;&#1090;&#1080;&#1080;</text></g><!--entity UC15--><g class="entity" data-qualified-name=".......... ...........UC15" data-source-line="30" id="ent0021"><ellipse cx="3350.0048" cy="245.3947" fill="#F1F1F1" rx="77.6048" ry="17.921" style="stroke:#181818;stroke-width:0.5;"/><text fill="#000000" font-family="sans-serif" font-size="14" lengthAdjust="spacing" textLength="124.9951" x="3287.5072" y="250.0431">&#1057;&#1086;&#1079;&#1076;&#1072;&#1090;&#1100; &#1079;&#1072;&#1084;&#1077;&#1090;&#1082;&#1091;</text></g><!--entity UC16--><g class="entity" data-qualified-name=".......... ...........UC16" data-source-line="31" id="ent0022"><ellipse cx="3563.0008" cy="245.3919" fill="#F1F1F1" rx="100.0908" ry="22.4182" style="stroke:#181818;stroke-width:0.5;"/><text fill="#000000" font-family="sans-serif" font-size="14" lengthAdjust="spacing" textLength="176.2578" x="3474.8719" y="250.0404">&#1056;&#1077;&#1076;&#1072;&#1082;&#1090;&#1080;&#1088;&#1086;&#1074;&#1072;&#1090;&#1100; &#1079;&#1072;&#1084;&#1077;&#1090;&#1082;&#1091;</text></g><!--entity UC17--><g class="entity" data-qualified-name=".......... ...........UC17" data-source-line="32" id="ent0023"><ellipse cx="3775.9972" cy="245.3912" fill="#F1F1F1" rx="77.9372" ry="17.9874" style="stroke:#181818;stroke-width:0.5;"/><text fill="#000000" font-family="sans-serif" font-size="14" lengthAdjust="spacing" textLength="125.7881" x="3713.1032" y="250.0396">&#1059;&#1076;&#1072;&#1083;&#1080;&#1090;&#1100; &#1079;&#1072;&#1084;&#1077;&#1090;&#1082;&#1091;</text></g><!--entity UC18--><g class="entity" data-qualified-name=".......... ...........UC18" data-source-line="33" id="ent0024"><ellipse cx="141.9977" cy="245.3953" fill="#F1F1F1" rx="118.8077" ry="26.1615" style="stroke:#181818;stroke-width:0.5;"/><text fill="#000000" font-family="sans-serif" font-size="14" lengthAdjust="spacing" textLength="216.8086" x="33.5934" y="250.0437">&#1055;&#1088;&#1086;&#1089;&#1084;&#1086;&#1090;&#1088;&#1077;&#1090;&#1100; &#1089;&#1087;&#1080;&#1089;&#1086;&#1082; &#1079;&#1072;&#1084;&#1077;&#1090;&#1086;&#1082;</text></g><!--entity UC19--><g class="entity" data-qualified-name=".......... ...........UC19" data-source-line="34" id="ent0025"><ellipse cx="407.0003" cy="245.3898" fill="#F1F1F1" rx="111.4303" ry="24.6861" style="stroke:#181818;stroke-width:0.5;"/><text fill="#000000" font-family="sans-serif" font-size="14" lengthAdjust="spacing" textLength="200.9697" x="306.5155" y="250.0383">&#1050;&#1072;&#1090;&#1077;&#1075;&#1086;&#1088;&#1080;&#1079;&#1080;&#1088;&#1086;&#1074;&#1072;&#1090;&#1100; &#1079;&#1072;&#1084;&#1077;&#1090;&#1082;&#1091;</text></g><!--entity UC20--><g class="entity" data-qualified-name=".......... ...........UC20" data-source-line="37" id="ent0026"><ellipse cx="4533.0002" cy="245.3898" fill="#F1F1F1" rx="104.9302" ry="23.386" style="stroke:#181818;stroke-width:0.5;"/><text fill="#000000" font-family="sans-serif" font-size="14" lengthAdjust="spacing" textLength="186.8672" x="4439.5666" y="250.0382">&#1069;&#1082;&#1089;&#1087;&#1086;&#1088;&#1090; &#1082;&#1086;&#1085;&#1090;&#1072;&#1082;&#1090;&#1086;&#1074; &#1074; CSV</text></g><!--entity UC21--><g class="entity" data-qualified-name=".......... ...........UC21" data-source-line="38" id="ent0027"><ellipse cx="4265.001" cy="245.392" fill="#F1F1F1" rx="128.041" ry="28.0082" style="stroke:#181818;stroke-width:0.5;"/><text fill="#000000" font-family="sans-serif" font-size="14" lengthAdjust="spacing" textLength="236.4346" x="4146.7837" y="250.0404">&#1057;&#1086;&#1093;&#1088;&#1072;&#1085;&#1080;&#1090;&#1100; &#1076;&#1072;&#1085;&#1085;&#1099;&#1077; &#1087;&#1088;&#1080;&#1083;&#1086;&#1078;&#1077;&#1085;&#1080;&#1103;</text></g><!--entity User--><g class="entity" data-qualified-name="User" data-source-line="4" id="ent0002"><ellipse cx="2246.9998" cy="67.5938" fill="#F1F1F1" rx="8" ry="8" style="stroke:#181818;stroke-width:0.5;"/><path d="M2246.9998,75.5938 L2246.9998,102.5938 M2233.9998,83.5938 L2259.9998,83.5938 M2246.9998,102.5938 L2233.9998,117.5938 M2246.9998,102.5938 L2259.9998,117.5938" fill="none" style="stroke:#181818;stroke-width:0.5;"/><text fill="#000000" font-family="sans-serif" font-size="14" lengthAdjust="spacing" textLength="103.0996" x="2195.45" y="132.0889">&#1055;&#1086;&#1083;&#1100;&#1079;&#1086;&#1074;&#1072;&#1090;&#1077;&#1083;&#1100;</text></g><!--entity Timer--><g class="entity" data-qualified-name="Timer" data-source-line="5" id="ent0003"><ellipse cx="4766.9971" cy="207.6038" fill="#F1F1F1" rx="8" ry="8" style="stroke:#181818;stroke-width:0.5;"/><path d="M4766.9971,215.6038 L4766.9971,242.6038 M4753.9971,223.6038 L4779.9971,223.6038 M4766.9971,242.6038 L4753.9971,257.6038 M4766.9971,242.6038 L4779.9971,257.6038" fill="none" style="stroke:#181818;stroke-width:0.5;"/><text fill="#000000" font-family="sans-serif" font-size="14" lengthAdjust="spacing" textLength="189.0342" x="4672.48" y="272.0989">&#1057;&#1080;&#1089;&#1090;&#1077;&#1084;&#1085;&#1099;&#1081; &#1087;&#1083;&#1072;&#1085;&#1080;&#1088;&#1086;&#1074;&#1097;&#1080;&#1082;</text><text fill="#000000" font-family="sans-serif" font-size="14" lengthAdjust="spacing" textLength="65.2148" x="4672.48" y="288.3957">(&#1058;&#1072;&#1081;&#1084;&#1077;&#1088;)</text></g><!--entity FS--><g class="entity" data-qualified-name="FS" data-source-line="6" id="ent0004"><ellipse cx="4265.0038" cy="67.5938" fill="#F1F1F1" rx="8" ry="8" style="stroke:#181818;stroke-width:0.5;"/><path d="M4265.0038,75.5938 L4265.0038,102.5938 M4252.0038,83.5938 L4278.0038,83.5938 M4265.0038,102.5938 L4252.0038,117.5938 M4265.0038,102.5938 L4278.0038,117.5938" fill="none" style="stroke:#181818;stroke-width:0.5;"/><text fill="#000000" font-family="sans-serif" font-size="14" lengthAdjust="spacing" textLength="137.3477" x="4196.33" y="132.0889">&#1060;&#1072;&#1081;&#1083;&#1086;&#1074;&#1072;&#1103; &#1089;&#1080;&#1089;&#1090;&#1077;&#1084;&#1072;</text></g><!--link User to UC1--><g class="link" data-entity-1="ent0002" data-entity-2="ent0006" data-link-type="dependency" data-source-line="41" id="lnk28"><path d="M2195.32,99.1337 C1946.08,103.6638 874.44,125.8337 734,174.3937 C702.17,185.3937 675.8853,205.953 657.3353,222.853" fill="none" id="User-to-UC1" style="stroke:#181818;stroke-width:1;"/><polygon fill="#181818" points="652.9,226.8937,662.2468,223.7894,656.5961,223.5264,656.8591,217.8757,652.9,226.8937" style="stroke:#181818;stroke-width:1;"/></g><!--link User to UC2--><g class="link" data-entity-1="ent0002" data-entity-2="ent0007" data-link-type="dependency" data-source-line="42" id="lnk29"><path d="M2195.03,98.0837 C1985.64,97.9537 1203.82,102.3937 969,174.3937 C935.07,184.7938 905.5148,203.278 882.6848,219.858" fill="none" id="User-to-UC2" style="stroke:#181818;stroke-width:1;"/><polygon fill="#181818" points="877.83,223.3837,887.4627,221.3317,881.8757,220.4456,882.7617,214.8586,877.83,223.3837" style="stroke:#181818;stroke-width:1;"/></g><!--link User to UC3--><g class="link" data-entity-1="ent0002" data-entity-2="ent0008" data-link-type="dependency" data-source-line="43" id="lnk30"><path d="M2195,98.0637 C2005.48,98.0137 1352.7,103.1337 1159,174.3937 C1127.85,185.8438 1102.4272,206.7083 1084.7672,223.5083" fill="none" id="User-to-UC3" style="stroke:#181818;stroke-width:1;"/><polygon fill="#181818" points="1080.42,227.6437,1089.6977,224.3387,1084.0426,224.1975,1084.1838,218.5424,1080.42,227.6437" style="stroke:#181818;stroke-width:1;"/></g><!--link User to UC4--><g class="link" data-entity-1="ent0002" data-entity-2="ent0009" data-link-type="dependency" data-source-line="44" id="lnk31"><path d="M2195.22,100.7537 C2041.36,108.6137 1588.88,134.5537 1447,174.3937 C1411,184.4937 1378.3177,200.3768 1350.4377,215.9568" fill="none" id="User-to-UC4" style="stroke:#181818;stroke-width:1;"/><polygon fill="#181818" points="1345.2,218.8837,1355.0078,217.9851,1349.5647,216.4446,1351.1052,211.0016,1345.2,218.8837" style="stroke:#181818;stroke-width:1;"/></g><!--link User to UC5--><g class="link" data-entity-1="ent0002" data-entity-2="ent0010" data-link-type="dependency" data-source-line="45" id="lnk32"><path d="M2195.18,101.3337 C2067.04,109.5237 1738.36,133.9537 1637,174.3937 C1606.36,186.6137 1581.0877,207.0721 1563.2777,223.6021" fill="none" id="User-to-UC5" style="stroke:#181818;stroke-width:1;"/><polygon fill="#181818" points="1558.88,227.6837,1568.1977,224.4931,1562.5448,224.2824,1562.7555,218.6294,1558.88,227.6837" style="stroke:#181818;stroke-width:1;"/></g><!--link User to UC6--><g class="link" data-entity-1="ent0002" data-entity-2="ent0011" data-link-type="dependency" data-source-line="46" id="lnk33"><path d="M2195.26,103.3837 C2121.98,111.8737 1984.69,132.2437 1875,174.3937 C1842.56,186.8538 1813.6648,204.3094 1790.3948,219.9994" fill="none" id="User-to-UC6" style="stroke:#181818;stroke-width:1;"/><polygon fill="#181818" points="1785.42,223.3538,1795.1184,221.6388,1789.5657,220.5585,1790.646,215.0058,1785.42,223.3538" style="stroke:#181818;stroke-width:1;"/></g><!--link User to UC7--><g class="link" data-entity-1="ent0002" data-entity-2="ent0012" data-link-type="dependency" data-source-line="47" id="lnk34"><path d="M2298.87,99.2437 C2559.22,104.4738 3717.08,130.0637 3871,174.3937 C3905.68,184.3737 3936.1937,202.3475 3960.2537,218.8675" fill="none" id="User-to-UC7" style="stroke:#181818;stroke-width:1;"/><polygon fill="#181818" points="3965.2,222.2637,3960.0447,213.8719,3961.0781,219.4336,3955.5164,220.467,3965.2,222.2637" style="stroke:#181818;stroke-width:1;"/></g><!--link User to UC8--><g class="link" data-entity-1="ent0002" data-entity-2="ent0014" data-link-type="dependency" data-source-line="48" id="lnk35"><path d="M2195.31,118.0537 C2160.48,132.1337 2113.96,152.4038 2075,174.3937 C2046.95,190.2238 2021.7238,208.299 2001.9838,223.329" fill="none" id="User-to-UC8" style="stroke:#181818;stroke-width:1;"/><polygon fill="#181818" points="1997.21,226.9638,2006.7938,224.6942,2001.1881,223.9348,2001.9475,218.3292,1997.21,226.9638" style="stroke:#181818;stroke-width:1;"/></g><!--link User to UC9--><g class="link" data-entity-1="ent0002" data-entity-2="ent0015" data-link-type="dependency" data-source-line="49" id="lnk36"><path d="M2233.09,135.8837 C2222.91,163.4537 2211.5189,194.2754 2203.0789,217.1254" fill="none" id="User-to-UC9" style="stroke:#181818;stroke-width:1;"/><polygon fill="#181818" points="2201,222.7537,2207.8706,215.6972,2202.7324,218.0635,2200.3661,212.9253,2201,222.7537" style="stroke:#181818;stroke-width:1;"/></g><!--link User to UC10--><g class="link" data-entity-1="ent0002" data-entity-2="ent0016" data-link-type="dependency" data-source-line="50" id="lnk37"><path d="M2288.46,135.8837 C2321.07,165.4838 2360.5183,201.29 2385.0183,223.54" fill="none" id="User-to-UC10" style="stroke:#181818;stroke-width:1;"/><polygon fill="#181818" points="2389.46,227.5737,2385.4867,218.562,2385.7586,224.2123,2380.1083,224.4842,2389.46,227.5737" style="stroke:#181818;stroke-width:1;"/></g><!--link User to UC11--><g class="link" data-entity-1="ent0002" data-entity-2="ent0017" data-link-type="dependency" data-source-line="51" id="lnk38"><path d="M2298.99,109.7537 C2351.83,122.3438 2435.44,144.7437 2504,174.3937 C2535.66,188.0737 2564.3461,205.0643 2587.9561,220.2743" fill="none" id="User-to-UC11" style="stroke:#181818;stroke-width:1;"/><polygon fill="#181818" points="2593,223.5237,2587.6004,215.287,2588.7967,220.8159,2583.2678,222.0123,2593,223.5237" style="stroke:#181818;stroke-width:1;"/></g><!--link User to UC12--><g class="link" data-entity-1="ent0002" data-entity-2="ent0018" data-link-type="dependency" data-source-line="52" id="lnk39"><path d="M2298.71,100.6237 C2390.48,106.0637 2586.94,123.1737 2744,174.3937 C2778.39,185.6038 2809.4607,201.8177 2835.7307,217.2977" fill="none" id="User-to-UC12" style="stroke:#181818;stroke-width:1;"/><polygon fill="#181818" points="2840.9,220.3438,2835.1768,212.3285,2836.5923,217.8054,2831.1154,219.2208,2840.9,220.3438" style="stroke:#181818;stroke-width:1;"/></g><!--link User to UC13--><g class="link" data-entity-1="ent0002" data-entity-2="ent0019" data-link-type="dependency" data-source-line="53" id="lnk40"><path d="M2298.9,100.5338 C2448.79,107.6037 2880.11,131.2437 3014,174.3937 C3047.96,185.3337 3077.8768,203.3785 3101.4068,219.6685" fill="none" id="User-to-UC13" style="stroke:#181818;stroke-width:1;"/><polygon fill="#181818" points="3106.34,223.0837,3101.2171,214.6721,3102.229,220.2377,3096.6634,221.2496,3106.34,223.0837" style="stroke:#181818;stroke-width:1;"/></g><!--link User to UC15--><g class="link" data-entity-1="ent0002" data-entity-2="ent0021" data-link-type="dependency" data-source-line="54" id="lnk41"><path d="M2298.87,98.4038 C2479.1,99.5338 3076.88,108.3137 3255,174.3937 C3286.12,185.9337 3311.5492,206.7721 3329.2192,223.5521" fill="none" id="User-to-UC15" style="stroke:#181818;stroke-width:1;"/><polygon fill="#181818" points="3333.57,227.6837,3329.7982,218.5857,3329.9443,224.2407,3324.2894,224.3868,3333.57,227.6837" style="stroke:#181818;stroke-width:1;"/></g><!--link User to UC16--><g class="link" data-entity-1="ent0002" data-entity-2="ent0022" data-link-type="dependency" data-source-line="55" id="lnk42"><path d="M2298.76,98.3237 C2499.47,99.1437 3226.08,106.7937 3445,174.3937 C3478.91,184.8637 3508.4624,203.3318 3531.3024,219.8918" fill="none" id="User-to-UC16" style="stroke:#181818;stroke-width:1;"/><polygon fill="#181818" points="3536.16,223.4138,3531.2216,214.8925,3532.112,220.4788,3526.5257,221.3692,3536.16,223.4138" style="stroke:#181818;stroke-width:1;"/></g><!--link User to UC17--><g class="link" data-entity-1="ent0002" data-entity-2="ent0023" data-link-type="dependency" data-source-line="56" id="lnk43"><path d="M2298.78,99.2337 C2540.18,104.0837 3548.91,127.0537 3681,174.3937 C3712.24,185.5837 3737.6586,206.4917 3755.2886,223.3917" fill="none" id="User-to-UC17" style="stroke:#181818;stroke-width:1;"/><polygon fill="#181818" points="3759.62,227.5438,3755.891,218.4281,3756.0105,224.0837,3750.3549,224.2033,3759.62,227.5438" style="stroke:#181818;stroke-width:1;"/></g><!--link User to UC18--><g class="link" data-entity-1="ent0002" data-entity-2="ent0024" data-link-type="dependency" data-source-line="57" id="lnk44"><path d="M2195.13,98.9038 C1902.88,102.8137 468.04,124.4437 278,174.3937 C242.04,183.8438 209.8524,200.7532 183.4324,216.9832" fill="none" id="User-to-UC18" style="stroke:#181818;stroke-width:1;"/><polygon fill="#181818" points="178.32,220.1237,188.0823,218.8211,182.5803,217.5066,183.8949,212.0046,178.32,220.1237" style="stroke:#181818;stroke-width:1;"/></g><!--link User to UC19--><g class="link" data-entity-1="ent0002" data-entity-2="ent0025" data-link-type="dependency" data-source-line="58" id="lnk45"><path d="M2195.05,99.1638 C1926.22,104.1237 699.13,129.0938 536,174.3937 C500.77,184.1737 469.5211,201.6991 444.4511,218.0991" fill="none" id="User-to-UC19" style="stroke:#181818;stroke-width:1;"/><polygon fill="#181818" points="439.43,221.3837,449.1514,219.8042,443.6142,218.6466,444.7719,213.1094,439.43,221.3837" style="stroke:#181818;stroke-width:1;"/></g><!--link User to UC20--><g class="link" data-entity-1="ent0002" data-entity-2="ent0026" data-link-type="dependency" data-source-line="59" id="lnk46"><path d="M2298.91,98.5737 C2608.25,100.7437 4202.24,114.7937 4411,174.3937 C4445.52,184.2437 4475.7126,202.4116 4499.3526,219.0416" fill="none" id="User-to-UC20" style="stroke:#181818;stroke-width:1;"/><polygon fill="#181818" points="4504.26,222.4937,4499.2004,214.0439,4500.1705,219.6169,4494.5975,220.5871,4504.26,222.4937" style="stroke:#181818;stroke-width:1;"/></g><!--link User to UC21--><g class="link" data-entity-1="ent0002" data-entity-2="ent0027" data-link-type="dependency" data-source-line="60" id="lnk47"><path d="M2299.05,99.1037 C2582.93,103.9738 3938.29,129.4237 4119,174.3937 C4155.96,183.5837 4189.4715,199.7204 4217.7515,215.6404" fill="none" id="User-to-UC21" style="stroke:#181818;stroke-width:1;"/><polygon fill="#181818" points="4222.98,218.5837,4217.0995,210.6831,4218.6229,216.131,4213.1751,217.6544,4222.98,218.5837" style="stroke:#181818;stroke-width:1;"/></g><!--link FS to UC7--><g class="link" data-entity-1="ent0004" data-entity-2="ent0012" data-link-type="dependency" data-source-line="63" id="lnk48"><path d="M4196.05,133.6038 C4171.62,146.2938 4144,160.8137 4119,174.3937 C4089.78,190.2537 4062.2395,205.7969 4037.7395,219.7969" fill="none" id="FS-to-UC7" style="stroke:#181818;stroke-width:1;"/><polygon fill="#181818" points="4032.53,222.7737,4042.3287,221.7815,4036.8712,220.2931,4038.3596,214.8355,4032.53,222.7737" style="stroke:#181818;stroke-width:1;"/></g><!--link FS to UC20--><g class="link" data-entity-1="ent0004" data-entity-2="ent0026" data-link-type="dependency" data-source-line="64" id="lnk49"><path d="M4334.01,123.0938 C4362.86,134.5237 4396.28,149.1538 4425,165.3937 C4454.53,182.0837 4480.8195,201.6797 4501.9895,218.6597" fill="none" id="FS-to-UC20" style="stroke:#181818;stroke-width:1;"/><polygon fill="#181818" points="4506.67,222.4138,4502.152,213.6623,4502.7696,219.2853,4497.1466,219.9029,4506.67,222.4138" style="stroke:#181818;stroke-width:1;"/></g><!--link FS to UC21--><g class="link" data-entity-1="ent0004" data-entity-2="ent0027" data-link-type="dependency" data-source-line="65" id="lnk50"><path d="M4265,135.8837 C4265,161.2537 4265,188.1538 4265,211.0438" fill="none" id="FS-to-UC21" style="stroke:#181818;stroke-width:1;"/><polygon fill="#181818" points="4265,217.0438,4269,208.0438,4265,212.0438,4261,208.0438,4265,217.0438" style="stroke:#181818;stroke-width:1;"/></g><!--link Timer to UC14--><g class="link" data-entity-1="ent0003" data-entity-2="ent0020" data-link-type="dependency" data-source-line="68" id="lnk51"><path d="M4672.19,285.8638 C4666.08,287.9538 4659.98,289.9238 4654,291.6937 C4419.06,361.3937 4140.7457,407.7979 3988.9357,430.1979" fill="none" id="Timer-to-UC14" style="stroke:#181818;stroke-width:1;"/><polygon fill="#181818" points="3983,431.0737,3992.4875,433.7172,3987.9464,430.3439,3991.3197,425.8028,3983,431.0737" style="stroke:#181818;stroke-width:1;"/></g><!--link UC1 to UC_Validate--><g class="link" data-entity-1="ent0006" data-entity-2="ent0013" data-link-type="dependency" data-source-line="71" id="lnk52"><path d="M640.98,264.1437 C650.27,291.2837 669.07,344.6038 688,388.6937 C694.03,402.7338 698.9635,412.929 704.7535,424.279" fill="none" id="UC1-to-UC_Validate" style="stroke:#181818;stroke-width:1;stroke-dasharray:7,7;"/><polygon fill="#181818" points="707.48,429.6238,706.9534,419.789,705.2079,425.1698,699.8271,423.4243,707.48,429.6238" style="stroke:#181818;stroke-width:1;"/><text fill="#000000" font-family="sans-serif" font-size="13" lengthAdjust="spacing" textLength="63.0068" x="689" y="359.7606">&#171;include&#187;</text></g><!--link UC2 to UC_Validate--><g class="link" data-entity-1="ent0007" data-entity-2="ent0013" data-link-type="dependency" data-source-line="72" id="lnk53"><path d="M837.23,267.7837 C819.13,295.7637 786.2,346.2537 757,388.6937 C747.44,402.5938 739.7924,413.2965 731.5324,424.6865" fill="none" id="UC2-to-UC_Validate" style="stroke:#181818;stroke-width:1;stroke-dasharray:7,7;"/><polygon fill="#181818" points="728.01,429.5438,736.5318,424.6062,730.9454,425.4961,730.0555,419.9097,728.01,429.5438" style="stroke:#181818;stroke-width:1;"/><text fill="#000000" font-family="sans-serif" font-size="13" lengthAdjust="spacing" textLength="63.0068" x="803" y="359.7606">&#171;include&#187;</text></g><!--reverse link UC8 to UC14--><g class="link" data-entity-1="ent0014" data-entity-2="ent0020" data-link-type="dependency" data-source-line="74" id="lnk54"><path d="M2010.4169,266.0449 C2029.7669,276.0749 2050.47,285.2938 2075,291.6937 C2392.41,374.5738 3392.97,425.0137 3748.29,440.6937" fill="none" id="UC8-backto-UC14" style="stroke:#181818;stroke-width:1;stroke-dasharray:7,7;"/><polygon fill="#181818" points="2005.09,263.2837,2011.2396,270.9768,2009.5291,265.5847,2014.9211,263.8743,2005.09,263.2837" style="stroke:#181818;stroke-width:1;"/><text fill="#000000" font-family="sans-serif" font-size="13" lengthAdjust="spacing" textLength="61.1851" x="2903.8945" y="334.7606">&#171;extend&#187;</text><path d="M2832,343.8266 L2832,383.8266 L3036,383.8266 L3036,353.8266 L3026,343.8266 L2832,343.8266" fill="#FEFFDD" style="stroke:#181818;stroke-width:0.5;"/><path d="M3026,343.8266 L3026,353.8266 L3036,353.8266 L3026,343.8266" fill="#FEFFDD" style="stroke:#181818;stroke-width:0.5;"/><text fill="#000000" font-family="sans-serif" font-size="13" lengthAdjust="spacing" textLength="130.4824" x="2838" y="360.8935">&#1057;&#1088;&#1072;&#1073;&#1072;&#1090;&#1099;&#1074;&#1072;&#1077;&#1090;, &#1077;&#1089;&#1083;&#1080;</text><text fill="#000000" font-family="sans-serif" font-size="13" lengthAdjust="spacing" textLength="183.9741" x="2838" y="376.0263">&#1091;&#1089;&#1090;&#1072;&#1085;&#1086;&#1074;&#1083;&#1077;&#1085;&#1086; &#1085;&#1072;&#1087;&#1086;&#1084;&#1080;&#1085;&#1072;&#1085;&#1080;&#1077;</text></g><?plantuml-src bLRTQXf15BxtAORSD856ikQ_16-4l43Qz2PGHAL8xGhHq48fH6tJ54kbQIvAeMbjUbSAgz76-1V84yoyKRzpt5rt9gknYEAPSxxpVyvCCLlCPOGybHtfo0jrYDy-FewGJUc0fEE1AikXR0hPKILvZRyzzK5UqX4nSLhRinzdxNJ-HM5HNZEe1-vVsIQkR8kRt_8CnnSixiWhWDlgyAONYTmJyemXRTd2j-T38DPLPVK9BDY995F5_BwOazzrwt2iJVISI1R4eq9ctnUiaxFCxiF_ghmIyBpd-iiwrNiOwkxPy_8d-zGddnPOqyFiyu2gNypkkHPh0aaOwtOOiBt3eNpc_9658sGmAAUgaVrCgfYqdoBR22CaIM4fcXEl8a90ypadoO47WHHrWQVQSAguS1r87nGogMI1h9o2ts1G1wdyO016EKjO6kG75sAaqCqJPNaIEAQ1pndQcsPjMGDG6eP8Kn-_PMe21dAJKQiDPTSC4lwucbPqJU0GP0fWLGEWLAe2EzTJmrHL5xocWR_0Oym1L9H3x65EvAL8xEowsFNRCSDScrfWPBA9pr2sNF4dkybSDfqiPW2RN7nEJqDLkKwrEqiV59TjrzB6ZAKF1MzEANqem5gQeVR8fkD6sQBzuursmhACUhTvQNGn_H_Lkt4cEx9rMqdDKwBtwpSmIsnyw2cWsQCDXtpo_q4m0BrvJx1LMbxNXEA47Egfw7YQLgRM5hFly3egSoHcRUlGU3as7H1M5S_0wgnJ7OfUcpRMeOZr_vxhiHgGdXgz8x-w2_w2Hes6QYRdD_tS_i5nQJoe7VAWXwcddTlWMm5pz0O70mWUKNqqymOyPCwRWIcFBPb5Kc_zwu2zRJ4nCdlxclIRD6Rv0THnIzKeR45XGhAbAiAyWKTt85qo52BdVS0SijId8_qczngAhaknk1Xtxu006TF9PPrSqSbLdLpJoNMTtD39JSED9OCs_B8Cnop3CylmnJASiGnlBCCTo_0dPlWJgCm9zrw7EfmVBbTyqJVTrOok2hmPXdXyQ6y6743BzauWHpx1DiVKx1PBneEdF-71GqiA6lc9uyKzNaTdq83kKSTUKrBtU4lMEvhFsgdSGJgpm3Dro5lqcAtu4fcNnOoTNg3y9ImHZSQ35vju8BQsN1tnECl4xfHXiGsn5OsonymVMM6sdGScRujSrdu6dgppx3LuKrJveOerSL_WjqIhRCzM5KwNumxBQFiE9spooEj_?></g></svg>